<?xml version="1.0" encoding="UTF-8"?>
<svg xmlns="http://www.w3.org/2000/svg" viewBox="0 0 120 120" role="img" aria-labelledby="title desc">
  <title id="title">Healthy Recipes icon</title>
  <desc id="desc">Green steaming bowl with spoon to represent warm, nourishing food.</desc>
  <defs>
    <linearGradient id="steam" x1="0%" y1="0%" x2="0%" y2="100%">
      <stop offset="0%" stop-color="#7bbd68" stop-opacity="0.9"/>
      <stop offset="100%" stop-color="#6aa04a" stop-opacity="1"/>
    </linearGradient>
  </defs>
  <g fill="#6aa04a">
    <path d="M19 63c2.3 19.6 19.1 34 41 34s38.7-14.4 41-34H19z"/>
    <path d="M27 84c6 12 18.9 20 33 20 14 0 26.9-8 33-20H27z"/>
    <path d="M100 44c6.5-5.5 10-13 6.2-18-3.8-5-11.9-3.9-18.4 2.5-10.5 10.4-13 28.2-13 28.2l20-12.7 1.8.3.2-.3 3.2.7z"/>
  </g>
  <g fill="url(#steam)">
    <path d="M49 17c-5.2 6.2-6.4 14.4-2.8 19.2 2.2 2.8 1.9 6.6-1.4 10.9-4.9 6.3-6.2 11.9-3.6 17.4 0-5.9 1.6-10.5 4.2-14.1 3.9-5.3 4.7-11.1 1.3-15.3-2.3-2.8-1.5-8.1 2.3-12.5z"/>
    <path d="M67 11c-5 5.6-6.7 12.9-3.7 17.6 2.1 3.2 1.5 6.7-2.3 11.3-4.6 5.7-5.9 10.6-3.9 16.6 0-5.6 1.8-10 4.9-13.9 4-5 4.9-10.9 1.6-15.6-2.1-3-1.1-9 3.4-15z"/>
    <path d="M83 15c-3.2 4.7-4.6 9.8-2.9 13.5 1.3 2.7.7 5.5-1.7 8.9-2.9 4.3-3.5 7.9-2.5 12.7 0-4.3 1.3-7.7 3.5-10.6 2.9-3.6 3.4-8 1.2-11.4-1.7-2.6-.8-7.2 2.4-13.1z"/>
  </g>
</svg>
