<?xml version="1.0" encoding="utf-8" ?>
<svg baseProfile="full" height="992" version="1.1" width="1056" xmlns="http://www.w3.org/2000/svg" xmlns:ev="http://www.w3.org/2001/xml-events" xmlns:xlink="http://www.w3.org/1999/xlink"><defs /><polygon points="359,884" style="fill:#1c4d2a;stroke:none;" /><polygon points="227,754" style="fill:#1c4d2a;stroke:none;" /><polygon points="174,557 169,567 169,582 170,583 170,601 171,602 171,608 173,610 173,615 174,616 174,620 175,621 175,624 176,625 176,630 177,631 177,635 178,636 178,641 177,643 178,644 179,648 181,649 180,651 183,655 183,658 185,662 185,665 187,668 187,671 189,674 189,677 194,687 194,689 193,690 195,691 194,694 195,695 196,694 197,695 196,698 197,697 200,701 199,702 201,703 200,705 202,706 203,710 205,712 204,714 205,713 206,714 205,716 206,715 207,716 207,718 206,719 210,722 209,724 210,723 211,724 211,726 210,727 211,726 213,727 212,730 213,728 215,730 214,731 216,732 215,734 216,733 218,735 217,736 218,737 217,738 218,737 220,739 219,740 222,742 222,743 227,749 228,751 227,752 228,751 230,754 229,756 230,755 232,756 231,758 232,757 234,759 233,760 234,759 235,760 235,762 234,763 235,762 240,767 239,768 240,767 242,769 241,770 242,770 243,772 244,772 246,774 246,775 248,777 247,778 248,777 250,779 249,780 250,779 252,781 251,782 252,781 254,783 253,784 255,784 256,785 255,786 256,785 258,787 257,788 258,788 259,790 261,790 262,791 261,792 262,792 265,795 265,796 267,796 268,797 267,798 269,798 270,799 269,800 270,799 272,801 271,802 272,801 276,805 275,806 276,805 281,810 282,810 283,812 288,815 287,816 288,815 293,820 294,820 295,822 297,822 300,825 299,826 300,825 303,827 301,828 305,828 306,830 309,830 310,832 311,832 313,834 315,834 316,836 317,836 319,838 321,838 329,844 331,844 333,846 337,848 339,848 341,850 343,850 345,852 347,852 349,854 353,855 354,857 356,858 355,860 356,861 356,872 357,873 357,876 359,879 359,881 362,885 361,886 362,885 363,886 363,888 364,888 367,891 367,892 369,893 369,894 371,894 372,895 371,896 373,896 377,898 379,900 381,900 383,902 385,902 388,904 392,904 395,906 398,906 401,908 404,908 405,909 408,909 409,910 412,910 413,911 417,911 418,912 425,912 426,913 436,914 437,915 441,915 442,916 448,916 449,917 453,917 454,918 462,918 463,919 473,919 474,920 489,920 490,921 555,921 556,920 573,920 574,919 585,919 586,918 591,918 592,917 605,916 606,915 610,915 611,914 615,914 616,913 620,913 621,912 632,911 633,910 635,910 639,908 642,908 643,907 645,907 646,906 648,906 649,905 651,905 652,904 660,902 662,900 664,900 666,898 668,898 672,894 673,894 676,891 677,891 677,890 679,889 680,886 682,884 683,880 685,877 685,874 686,873 686,870 687,869 687,865 688,864 688,859 692,855 708,847 710,845 718,841 723,837 727,835 728,836 727,835 729,833 732,832 734,830 738,828 741,825 742,825 745,822 746,822 749,819 750,819 753,816 754,816 760,810 761,810 764,807 765,807 765,806 767,804 768,804 776,796 777,796 777,795 779,794 779,793 781,792 781,791 784,788 785,788 786,786 788,785 788,784 795,777 795,776 797,775 797,774 800,771 800,770 802,768 803,768 803,767 806,764 806,763 809,760 811,756 814,753 814,752 817,749 817,748 821,743 821,741 827,733 827,731 830,728 830,726 832,724 832,722 836,717 836,715 838,712 838,710 840,708 842,704 842,702 846,695 846,693 850,685 851,680 853,677 853,675 854,674 854,672 855,671 855,669 857,665 857,662 859,658 859,655 861,652 862,645 864,641 865,633 866,632 867,624 868,623 868,618 869,617 869,614 870,613 870,605 871,604 871,598 872,597 872,582 873,581 873,571 872,570 872,566 867,556 859,549 855,547 852,544 848,543 846,541 843,541 841,539 835,538 834,536 831,536 830,534 829,535 827,535 826,533 824,534 823,533 820,533 816,531 813,531 812,530 805,529 801,527 796,527 795,526 792,526 791,525 775,524 774,523 753,523 746,529 744,534 741,538 740,543 743,547 749,550 752,550 753,551 757,551 758,552 762,552 763,553 766,553 767,554 771,554 775,556 780,556 781,557 786,557 787,558 791,558 792,559 795,559 796,560 800,560 803,562 806,562 807,563 812,564 815,566 817,566 819,568 821,568 823,570 825,570 826,572 828,572 831,575 831,578 832,579 831,581 825,587 817,591 815,591 810,594 808,594 805,596 803,596 802,597 800,597 796,599 788,600 786,602 783,602 782,603 779,603 778,604 774,604 773,605 770,605 769,606 759,607 758,608 753,608 752,609 747,609 746,610 738,611 737,612 736,611 735,612 731,612 730,613 723,613 722,614 715,614 714,615 697,616 696,617 690,617 689,618 681,618 680,619 660,620 659,621 647,621 646,622 628,622 627,623 600,623 599,624 575,624 574,625 469,625 468,624 439,624 438,623 416,623 415,622 396,622 395,621 384,621 383,620 361,619 360,618 353,618 352,617 349,617 348,616 338,616 337,615 320,614 319,613 314,613 313,612 308,612 307,611 302,611 301,610 295,610 294,609 286,608 285,607 279,607 278,606 274,606 273,605 265,604 261,602 257,602 255,600 251,600 250,599 243,598 242,597 240,597 239,596 231,594 229,592 226,592 221,589 219,589 215,587 210,582 209,580 209,578 212,574 213,574 218,570 220,570 222,568 224,568 226,566 228,566 229,565 231,565 232,564 234,564 235,563 237,563 238,562 240,562 244,560 247,560 251,558 254,558 255,557 258,557 259,556 263,556 267,554 271,554 272,553 275,553 276,552 280,552 281,551 285,551 286,550 290,550 291,549 295,549 296,548 302,548 303,547 307,547 308,546 309,547 310,546 314,546 315,545 320,545 321,544 332,543 333,542 347,541 348,540 359,540 360,539 370,539 371,538 379,538 380,537 389,537 390,536 400,536 401,535 409,535 410,534 421,534 422,533 433,533 434,532 437,532 438,531 440,531 440,530 442,528 443,528 445,524 445,522 440,514 439,514 433,509 431,509 430,508 429,509 387,509 386,510 372,510 371,511 356,511 355,512 346,512 345,513 337,513 336,514 326,514 325,515 314,515 313,516 294,517 293,518 288,518 287,519 283,519 282,520 278,520 277,521 272,521 271,522 266,522 265,523 254,524 253,525 244,526 243,527 237,528 233,530 230,530 226,532 218,533 217,534 212,535 209,537 207,537 202,540 197,541 191,544 189,546 186,547 181,551 179,550 180,551" style="fill:#1c4d2a;stroke:none;" /><polygon points="392,345 392,348" style="fill:#1c4d2a;stroke:none;" /><polygon points="392,340 392,341" style="fill:#1c4d2a;stroke:none;" /><polygon points="528,289 527,289 523,293 523,294 519,299 518,302 516,304 513,311 511,313 511,315 508,319 508,321 507,322 507,324 506,325 506,327 505,328 505,330 504,331 504,333 502,337 502,340 501,341 501,344 500,345 500,350 499,351 499,382 500,383 500,390 501,391 501,394 502,395 501,396 503,398 503,402 505,406 505,409 507,413 507,416 508,417 508,419 509,420 509,422 510,423 510,425 511,426 511,428 513,432 513,435 514,436 514,439 515,440 515,443 516,444 517,456 518,457 518,485 517,486 518,487 517,488 516,504 515,505 515,509 514,510 514,514 513,515 512,522 511,523 510,528 508,531 509,532 508,533 508,535 505,540 505,542 503,544 502,544 503,545 502,546 502,548 499,551 499,553 503,552 503,551 514,540 516,540 515,539 528,523 531,517 535,512 535,510 537,508 537,506 540,501 542,493 544,490 544,487 545,486 545,483 546,482 546,480 547,479 547,475 548,474 548,468 549,467 549,457 550,456 550,442 549,441 549,432 548,431 548,425 547,424 546,415 545,414 545,412 544,411 544,409 543,408 543,406 542,405 542,403 541,402 541,400 540,399 540,397 538,393 538,389 536,386 536,384 534,381 534,379 532,375 532,372 531,371 531,368 530,367 530,364 528,360 528,356 527,355 527,352 526,351 525,341 524,340 524,334 523,333 523,310 524,309 524,303 525,302 525,299 526,298 526,295 527,294" style="fill:#1c4d2a;stroke:none;" /><polygon points="922,249 917,244 914,243 912,241 908,239 906,239 902,237 886,237 885,238 880,239 872,243 869,246 868,246 853,261 853,262 850,265 850,266 848,267 847,270 841,277 841,278 837,283 836,286 824,301 823,304 820,307 819,310 810,321 810,322 806,327 805,330 799,337 795,344 791,348 791,349 789,351 785,358 782,361 781,364 772,375 771,378 765,385 761,392 758,395 757,398 751,405 751,406 747,411 746,414 742,418 739,424 736,427 736,428 730,435 729,438 723,445 721,450 713,460 712,463 708,467 707,470 698,481 697,484 691,491 690,494 684,501 683,504 677,511 677,512 675,514 673,518 670,521 668,525 665,528 665,529 662,532 662,533 658,537 658,538 653,543 653,544 651,545 651,546 641,556 640,556 636,560 635,560 629,565 620,569 618,571 616,571 613,573 608,574 606,576 604,576 601,578 599,578 589,583 587,583 586,584 583,583 584,584 582,586 580,586 568,592 566,594 561,596 559,598 553,601 546,607 541,608 542,609 541,610 535,613 530,617 528,617 528,619 529,620 531,620 539,616 542,616 543,615 546,615 547,614 550,614 551,613 557,613 560,611 565,611 566,610 569,610 570,609 581,608 582,607 596,606 597,605 603,605 604,604 624,603 625,602 638,602 639,601 650,601 651,600 678,599 679,598 682,598 686,596 690,588 690,581 691,580 691,575 692,574 692,571 694,568 695,563 697,560 697,557 702,547 704,546 705,542 709,537 710,534 712,533 713,530 716,527 716,526 721,521 721,520 726,515 726,514 729,512 729,511 736,504 736,503 746,493 746,492 762,475 762,474 764,473 764,472 771,465 771,464 773,463 773,462 778,457 779,457 779,455 781,454 781,453 787,447 787,446 795,438 795,437 797,436 797,435 807,425 807,424 810,422 810,421 815,416 815,415 817,414 817,413 823,407 823,406 830,399 830,398 833,396 833,395 841,387 841,386 855,371 855,370 857,368 858,368 858,367 860,365 861,365 861,364 865,360 866,360 866,358 868,356 869,356 869,355 873,351 873,350 875,348 876,348 876,347 883,340 883,339 885,337 886,337 888,333 897,324 897,323 904,316 904,315 906,313 907,313 907,312 910,309 911,309 911,307 918,300 921,294 923,293 923,291 926,288 926,286 929,282 930,274 931,273 931,268 930,267 930,261 928,259 928,257 922,250" style="fill:#1c4d2a;stroke:none;" /><polygon points="638,168 636,168 632,170 630,172 625,174 623,176 617,179 616,181 615,181 611,185 610,185 610,186 608,187 598,197 598,198 595,201 595,202 592,205 592,206 586,214 585,217 582,221 582,223 579,227 579,229 575,236 575,239 574,240 574,242 572,246 572,250 571,251 570,259 569,260 569,271 568,272 568,285 569,286 569,297 570,298 570,302 571,303 571,308 572,309 572,313 574,317 573,318 575,321 574,322 577,327 577,329 578,330 578,332 579,333 581,341 584,347 584,349 583,350 584,349 586,351 586,353 588,356 589,361 592,367 591,369 593,370 593,373 595,376 595,378 597,382 597,385 598,386 598,392 599,393 599,402 600,403 600,426 599,427 599,440 598,441 598,447 597,448 597,451 596,452 595,460 593,464 593,468 592,469 592,471 590,475 589,482 583,494 581,503 583,503 586,500 587,500 596,491 597,491 599,489 599,488 611,476 611,475 615,471 617,467 620,464 621,461 625,456 625,454 627,452 629,448 629,446 631,444 632,439 635,434 635,431 638,425 638,421 639,420 639,418 640,417 640,413 641,412 641,407 642,406 642,398 643,397 643,372 642,371 642,364 641,363 641,359 640,358 640,354 639,353 639,349 638,348 638,342 637,341 637,339 635,335 635,332 633,328 633,325 632,324 632,322 630,318 630,314 629,313 629,311 627,307 627,304 626,303 626,301 624,297 624,294 623,293 623,290 622,289 622,284 621,283 620,275 619,274 619,269 618,268 618,259 617,258 617,238 618,237 618,228 619,227 619,222 620,221 620,218 621,217 621,213 622,212 623,205 624,204 625,198 627,195 628,190 633,180 633,178 635,176 638,170" style="fill:#1c4d2a;stroke:none;" /><polygon points="500,40 498,40 499,44 501,48 503,50 503,52 505,53 506,57 507,58 507,60 509,64 511,66 512,71 514,74 514,77 515,78 515,81 516,82 516,88 517,89 517,96 518,97 518,109 517,110 516,125 515,126 513,134 510,139 510,141 506,149 504,151 500,159 492,169 490,173 484,179 483,181 482,180 483,181 481,183 481,184 474,191 474,192 467,199 467,200 465,201 465,202 458,209 458,210 456,211 456,212 451,217 451,218 449,219 449,220 444,225 444,226 441,229 441,230 438,233 438,234 436,235 435,238 426,249 425,252 422,255 421,258 419,260 418,260 418,263 416,265 413,272 410,276 410,278 405,287 404,292 402,293 402,296 401,297 401,300 400,301 400,304 399,305 399,308 398,309 398,312 397,313 397,317 396,318 395,329 394,330 394,350 393,351 393,361 394,359 395,360 395,367 396,368 396,371 398,375 398,378 399,379 399,382 401,386 401,389 403,391 403,393 411,409 418,418 417,420 418,419 421,422 421,424 422,424 424,426 424,427 426,429 425,430 426,429 428,431 427,432 428,431 432,435 431,436 432,435 434,437 433,438 434,437 436,439 435,440 436,439 438,441 437,442 438,441 440,443 439,444 440,443 442,445 441,446 442,445 444,446 445,448 447,449 447,450 448,449 450,451 449,452 450,451 453,454 454,454 455,456 457,456 466,463 468,463 467,459 466,458 466,456 465,455 466,454 465,455 463,453 464,452 462,450 462,448 459,444 458,438 456,436 456,434 454,431 454,429 452,426 452,424 450,420 450,417 449,416 449,413 448,412 448,408 446,404 446,400 445,399 445,395 444,394 444,389 443,388 443,380 442,379 442,360 443,359 443,352 444,351 445,342 446,341 446,338 448,334 449,327 452,321 452,319 455,314 455,312 457,310 457,308 459,306 459,304 466,294 467,291 475,281 476,278 480,274 480,273 483,270 483,269 485,268 485,267 487,265 488,265 489,262 491,261 491,260 496,255 496,254 498,253 498,252 523,225 523,224 528,219 528,218 531,215 531,214 536,208 538,204 541,201 541,199 544,196 544,194 548,189 548,187 550,185 550,183 552,181 552,179 554,177 554,175 556,172 556,170 559,164 560,158 562,154 562,151 563,150 563,147 564,146 564,140 565,139 565,117 564,116 564,109 563,108 562,101 557,91 556,86 554,84 553,81 550,78 550,77 545,71 545,70 539,64 539,63 538,63 532,57 532,56 530,56 529,54 526,53 521,49 513,45 508,44" style="fill:#1c4d2a;stroke:none;" /></svg>
